<svg xmlns="http://www.w3.org/2000/svg" viewBox="0 0 512 512" role="img" aria-labelledby="title desc">
  <title id="title">UniCon3R unicorn icon</title>
  <desc id="desc">A cute mint unicorn mascot with a cyan halo and dark outline.</desc>
  <defs>
    <linearGradient id="halo" x1="88" y1="80" x2="424" y2="432" gradientUnits="userSpaceOnUse">
      <stop offset="0" stop-color="#9ff7f1"/>
      <stop offset="1" stop-color="#18a8cc"/>
    </linearGradient>
    <linearGradient id="body" x1="112" y1="104" x2="408" y2="432" gradientUnits="userSpaceOnUse">
      <stop offset="0" stop-color="#d9fff0"/>
      <stop offset="0.58" stop-color="#6de6bf"/>
      <stop offset="1" stop-color="#36bfa3"/>
    </linearGradient>
    <linearGradient id="horn" x1="236" y1="30" x2="290" y2="145" gradientUnits="userSpaceOnUse">
      <stop offset="0" stop-color="#fff4b8"/>
      <stop offset="0.45" stop-color="#ffc2a5"/>
      <stop offset="1" stop-color="#ff86a6"/>
    </linearGradient>
    <filter id="shadow" x="-20%" y="-20%" width="140%" height="150%">
      <feDropShadow dx="0" dy="12" stdDeviation="12" flood-color="#10152f" flood-opacity="0.23"/>
    </filter>
  </defs>

  <circle cx="256" cy="258" r="205" fill="url(#halo)" opacity="0.92"/>
  <circle cx="256" cy="258" r="175" fill="#ffffff" opacity="0.26"/>

  <g filter="url(#shadow)">
    <path d="M241 109c8-42 18-68 32-80 16 16 26 43 31 81" fill="url(#horn)" stroke="#1f2445" stroke-width="16" stroke-linejoin="round"/>
    <path d="M252 70l42 31M243 104l62 43" fill="none" stroke="#ffffff" stroke-width="11" stroke-linecap="round" opacity="0.8"/>

    <path d="M125 160c-37-53-42-91-16-113 31 12 57 44 78 94" fill="#ffd4d7" stroke="#1f2445" stroke-width="16" stroke-linejoin="round"/>
    <path d="M387 160c37-53 42-91 16-113-31 12-57 44-78 94" fill="#ffd4d7" stroke="#1f2445" stroke-width="16" stroke-linejoin="round"/>
    <path d="M118 72c26 14 45 37 59 69M394 72c-26 14-45 37-59 69" fill="none" stroke="#fff7ef" stroke-width="12" stroke-linecap="round" opacity="0.9"/>

    <path d="M108 236c0-89 63-151 148-151s148 62 148 151v53c0 88-63 149-148 149s-148-61-148-149z" fill="url(#body)" stroke="#1f2445" stroke-width="16" stroke-linejoin="round"/>
    <path d="M99 267c-23 14-38 41-38 74 0 43 25 74 59 74 24 0 39-17 42-42M413 267c23 14 38 41 38 74 0 43-25 74-59 74-24 0-39-17-42-42" fill="url(#body)" stroke="#1f2445" stroke-width="16" stroke-linecap="round" stroke-linejoin="round"/>

    <circle cx="256" cy="222" r="64" fill="#f8ffff" stroke="#1f2445" stroke-width="12"/>
    <circle cx="256" cy="222" r="35" fill="#098fc4"/>
    <circle cx="268" cy="207" r="13" fill="#ffffff"/>
    <path d="M177 294c22 34 52 50 79 50s57-16 79-50" fill="none" stroke="#1f2445" stroke-width="13" stroke-linecap="round"/>

    <circle cx="159" cy="205" r="11" fill="#19b99f"/>
    <circle cx="154" cy="265" r="9" fill="#19b99f"/>
    <circle cx="188" cy="354" r="14" fill="#19b99f"/>
    <circle cx="226" cy="383" r="11" fill="#19b99f"/>
    <circle cx="287" cy="383" r="11" fill="#19b99f"/>
    <circle cx="322" cy="354" r="14" fill="#19b99f"/>
    <circle cx="358" cy="265" r="9" fill="#19b99f"/>
    <circle cx="353" cy="205" r="11" fill="#19b99f"/>

    <path d="M178 436v31M334 436v31" stroke="#1f2445" stroke-width="16" stroke-linecap="round"/>
    <path d="M151 468h54M307 468h54" stroke="#1f2445" stroke-width="18" stroke-linecap="round"/>
  </g>
</svg>
